<mxfile host="65bd71144e">
    <diagram id="hHrJcXYP6PQH-Bg3Ty8W" name="general_links">
        <mxGraphModel dx="787" dy="1567" grid="1" gridSize="10" guides="1" tooltips="1" connect="1" arrows="1" fold="1" page="1" pageScale="1" pageWidth="850" pageHeight="1100" math="0" shadow="0">
            <root>
                <mxCell id="0"/>
                <mxCell id="1" parent="0"/>
                <mxCell id="2" value="PRD&lt;div&gt;purchaseDate&lt;/div&gt;&lt;div&gt;[date]&lt;/div&gt;" style="ellipse;whiteSpace=wrap;html=1;aspect=fixed;" vertex="1" parent="1">
                    <mxGeometry x="350" y="210" width="130" height="130" as="geometry"/>
                </mxCell>
                <mxCell id="3" value="PPRD&lt;div&gt;priceAtPurchaseDate&lt;/div&gt;&lt;div&gt;&lt;span style=&quot;color: rgb(63, 63, 63);&quot;&gt;[reel]&lt;/span&gt;&lt;/div&gt;" style="ellipse;whiteSpace=wrap;html=1;aspect=fixed;" vertex="1" parent="1">
                    <mxGeometry x="320" y="465" width="160" height="160" as="geometry"/>
                </mxCell>
                <mxCell id="6" value="" style="endArrow=none;html=1;strokeColor=#433DFF;exitX=0.5;exitY=0;exitDx=0;exitDy=0;entryX=0.5;entryY=1;entryDx=0;entryDy=0;" edge="1" parent="1" source="3" target="2">
                    <mxGeometry width="50" height="50" relative="1" as="geometry">
                        <mxPoint x="300" y="390" as="sourcePoint"/>
                        <mxPoint x="350" y="340" as="targetPoint"/>
                    </mxGeometry>
                </mxCell>
                <mxCell id="7" value="" style="endArrow=none;html=1;strokeColor=#433DFF;" edge="1" parent="1">
                    <mxGeometry width="50" height="50" relative="1" as="geometry">
                        <mxPoint x="40" y="220" as="sourcePoint"/>
                        <mxPoint x="90" y="220" as="targetPoint"/>
                    </mxGeometry>
                </mxCell>
                <mxCell id="8" value="Lien Datelike-Reel" style="rounded=0;whiteSpace=wrap;html=1;" vertex="1" parent="1">
                    <mxGeometry x="110" y="200" width="100" height="40" as="geometry"/>
                </mxCell>
                <mxCell id="11" value="SD&lt;br&gt;&lt;div&gt;statusDate&lt;/div&gt;&lt;div&gt;&lt;span style=&quot;color: rgb(63, 63, 63);&quot;&gt;[date]&lt;/span&gt;&lt;/div&gt;" style="ellipse;whiteSpace=wrap;html=1;aspect=fixed;" vertex="1" parent="1">
                    <mxGeometry x="610" y="10" width="130" height="130" as="geometry"/>
                </mxCell>
                <mxCell id="12" value="TD&lt;div&gt;terminationDate&lt;/div&gt;&lt;div&gt;&lt;span style=&quot;color: rgb(63, 63, 63);&quot;&gt;[date]&lt;/span&gt;&lt;/div&gt;" style="ellipse;whiteSpace=wrap;html=1;aspect=fixed;" vertex="1" parent="1">
                    <mxGeometry x="590" y="220" width="130" height="130" as="geometry"/>
                </mxCell>
                <mxCell id="13" value="PTD&lt;div&gt;priceAtTerminationDate&lt;/div&gt;&lt;div&gt;&lt;span style=&quot;color: rgb(63, 63, 63);&quot;&gt;[reel]&lt;/span&gt;&lt;/div&gt;" style="ellipse;whiteSpace=wrap;html=1;aspect=fixed;" vertex="1" parent="1">
                    <mxGeometry x="560" y="475" width="160" height="160" as="geometry"/>
                </mxCell>
                <mxCell id="14" value="" style="endArrow=none;html=1;strokeColor=#433DFF;exitX=0.5;exitY=0;exitDx=0;exitDy=0;entryX=0.5;entryY=1;entryDx=0;entryDy=0;" edge="1" parent="1" source="13" target="12">
                    <mxGeometry width="50" height="50" relative="1" as="geometry">
                        <mxPoint x="540" y="400" as="sourcePoint"/>
                        <mxPoint x="590" y="350" as="targetPoint"/>
                    </mxGeometry>
                </mxCell>
                <mxCell id="15" value="DVANX&lt;div&gt;cycleAnchorDateOfDividend&lt;/div&gt;&lt;div&gt;&lt;span style=&quot;color: rgb(63, 63, 63);&quot;&gt;[date]&lt;/span&gt;&lt;/div&gt;" style="ellipse;whiteSpace=wrap;html=1;aspect=fixed;" vertex="1" parent="1">
                    <mxGeometry x="870" y="195" width="180" height="180" as="geometry"/>
                </mxCell>
                <mxCell id="16" value="DVCL&lt;div&gt;cycleOfDividend&lt;/div&gt;&lt;div&gt;&lt;span style=&quot;color: rgb(63, 63, 63);&quot;&gt;[cycle]&lt;/span&gt;&lt;/div&gt;" style="ellipse;whiteSpace=wrap;html=1;aspect=fixed;" vertex="1" parent="1">
                    <mxGeometry x="1130" y="205" width="160" height="160" as="geometry"/>
                </mxCell>
                <mxCell id="17" value="" style="endArrow=none;html=1;strokeColor=#66CC00;exitX=0;exitY=0.5;exitDx=0;exitDy=0;entryX=1;entryY=0.5;entryDx=0;entryDy=0;" edge="1" parent="1" source="16" target="15">
                    <mxGeometry width="50" height="50" relative="1" as="geometry">
                        <mxPoint x="840" y="400" as="sourcePoint"/>
                        <mxPoint x="890" y="350" as="targetPoint"/>
                    </mxGeometry>
                </mxCell>
                <mxCell id="19" value="DVNP&lt;div&gt;nextDividendPaymentAmount&lt;/div&gt;&lt;div&gt;[reel]&lt;/div&gt;" style="ellipse;whiteSpace=wrap;html=1;aspect=fixed;" vertex="1" parent="1">
                    <mxGeometry x="1000" y="500" width="170" height="170" as="geometry"/>
                </mxCell>
                <mxCell id="20" value="" style="endArrow=none;html=1;strokeColor=#433DFF;exitX=0.5;exitY=0;exitDx=0;exitDy=0;" edge="1" parent="1" source="19">
                    <mxGeometry width="50" height="50" relative="1" as="geometry">
                        <mxPoint x="1100" y="410" as="sourcePoint"/>
                        <mxPoint x="1090" y="290" as="targetPoint"/>
                    </mxGeometry>
                </mxCell>
                <mxCell id="22" value="" style="endArrow=none;html=1;strokeColor=#66CC00;exitX=0;exitY=0.5;exitDx=0;exitDy=0;" edge="1" parent="1">
                    <mxGeometry width="50" height="50" relative="1" as="geometry">
                        <mxPoint x="90" y="270" as="sourcePoint"/>
                        <mxPoint x="40" y="270" as="targetPoint"/>
                    </mxGeometry>
                </mxCell>
                <mxCell id="23" value="Lien Date-Cycle" style="rounded=0;whiteSpace=wrap;html=1;" vertex="1" parent="1">
                    <mxGeometry x="110" y="255" width="100" height="40" as="geometry"/>
                </mxCell>
                <mxCell id="27" value="FEANX&lt;div&gt;cycleAnchorDateOfFee&lt;/div&gt;&lt;div&gt;&lt;span style=&quot;color: rgb(63, 63, 63);&quot;&gt;[date]&lt;/span&gt;&lt;/div&gt;" style="ellipse;whiteSpace=wrap;html=1;aspect=fixed;" vertex="1" parent="1">
                    <mxGeometry x="1500" y="200" width="180" height="180" as="geometry"/>
                </mxCell>
                <mxCell id="28" value="FECL&lt;div&gt;cycleOfFee&lt;/div&gt;&lt;div&gt;&lt;span style=&quot;color: rgb(63, 63, 63);&quot;&gt;[cycle]&lt;/span&gt;&lt;/div&gt;" style="ellipse;whiteSpace=wrap;html=1;aspect=fixed;" vertex="1" parent="1">
                    <mxGeometry x="1760" y="210" width="160" height="160" as="geometry"/>
                </mxCell>
                <mxCell id="29" value="" style="endArrow=none;html=1;strokeColor=#66CC00;exitX=0;exitY=0.5;exitDx=0;exitDy=0;entryX=1;entryY=0.5;entryDx=0;entryDy=0;" edge="1" parent="1" source="28" target="27">
                    <mxGeometry width="50" height="50" relative="1" as="geometry">
                        <mxPoint x="1470" y="405" as="sourcePoint"/>
                        <mxPoint x="1520" y="355" as="targetPoint"/>
                    </mxGeometry>
                </mxCell>
                <mxCell id="30" value="" style="rounded=0;whiteSpace=wrap;html=1;" vertex="1" parent="1">
                    <mxGeometry x="1390" y="510" width="650" height="275" as="geometry"/>
                </mxCell>
                <mxCell id="31" value="FEAC&lt;br&gt;&lt;div&gt;feeAccrued&lt;/div&gt;&lt;div&gt;[reel]&lt;/div&gt;" style="ellipse;whiteSpace=wrap;html=1;aspect=fixed;" vertex="1" parent="1">
                    <mxGeometry x="1425" y="552.5" width="170" height="170" as="geometry"/>
                </mxCell>
                <mxCell id="32" value="&lt;div&gt;&lt;font color=&quot;#000000&quot;&gt;FEB&lt;/font&gt;&lt;/div&gt;&lt;div&gt;feeBasis&lt;/div&gt;&lt;div&gt;[enum]&lt;/div&gt;" style="ellipse;whiteSpace=wrap;html=1;aspect=fixed;" vertex="1" parent="1">
                    <mxGeometry x="1630" y="552.5" width="170" height="170" as="geometry"/>
                </mxCell>
                <mxCell id="33" value="FER&lt;div&gt;feeRate&lt;/div&gt;&lt;div&gt;[reel]&lt;/div&gt;" style="ellipse;whiteSpace=wrap;html=1;aspect=fixed;" vertex="1" parent="1">
                    <mxGeometry x="1840" y="562.5" width="170" height="170" as="geometry"/>
                </mxCell>
                <mxCell id="34" value="" style="endArrow=none;html=1;strokeColor=#433DFF;exitX=0.5;exitY=0;exitDx=0;exitDy=0;" edge="1" parent="1" source="30">
                    <mxGeometry width="50" height="50" relative="1" as="geometry">
                        <mxPoint x="1710" y="500" as="sourcePoint"/>
                        <mxPoint x="1715" y="290" as="targetPoint"/>
                    </mxGeometry>
                </mxCell>
                <mxCell id="35" value="IPCBANX&lt;div&gt;cycleAnchorDateOfInterestCalculationBase&lt;/div&gt;&lt;div&gt;&lt;span style=&quot;color: rgb(63, 63, 63);&quot;&gt;[date]&lt;/span&gt;&lt;/div&gt;" style="ellipse;whiteSpace=wrap;html=1;aspect=fixed;" vertex="1" parent="1">
                    <mxGeometry x="2290" y="125" width="250" height="250" as="geometry"/>
                </mxCell>
                <mxCell id="36" value="IPCBCL&lt;div&gt;cycleOfInterestCalculationBase&lt;/div&gt;&lt;div&gt;&lt;span style=&quot;color: rgb(63, 63, 63);&quot;&gt;[cycle]&lt;/span&gt;&lt;/div&gt;" style="ellipse;whiteSpace=wrap;html=1;aspect=fixed;" vertex="1" parent="1">
                    <mxGeometry x="2610" y="140" width="190" height="190" as="geometry"/>
                </mxCell>
                <mxCell id="37" value="" style="endArrow=none;html=1;strokeColor=#66CC00;exitX=0;exitY=0.5;exitDx=0;exitDy=0;entryX=1;entryY=0.5;entryDx=0;entryDy=0;" edge="1" parent="1" source="36" target="35">
                    <mxGeometry width="50" height="50" relative="1" as="geometry">
                        <mxPoint x="2330" y="400" as="sourcePoint"/>
                        <mxPoint x="2380" y="350" as="targetPoint"/>
                    </mxGeometry>
                </mxCell>
                <mxCell id="38" value="" style="rounded=0;whiteSpace=wrap;html=1;" vertex="1" parent="1">
                    <mxGeometry x="2210" y="500" width="650" height="330" as="geometry"/>
                </mxCell>
                <mxCell id="39" value="IPCBA&lt;br&gt;&lt;div&gt;interestCalculationBaseAmount&lt;/div&gt;&lt;div&gt;[reel]&lt;/div&gt;" style="ellipse;whiteSpace=wrap;html=1;aspect=fixed;" vertex="1" parent="1">
                    <mxGeometry x="2240" y="550" width="170" height="170" as="geometry"/>
                </mxCell>
                <mxCell id="40" value="&lt;div&gt;&lt;font color=&quot;#000000&quot;&gt;IPCB&lt;/font&gt;&lt;/div&gt;&lt;div&gt;interestCalculationBase&lt;/div&gt;&lt;div&gt;[enum]&lt;/div&gt;" style="ellipse;whiteSpace=wrap;html=1;aspect=fixed;" vertex="1" parent="1">
                    <mxGeometry x="2510" y="650" width="170" height="170" as="geometry"/>
                </mxCell>
                <mxCell id="42" value="NT variant" style="rounded=0;whiteSpace=wrap;html=1;" vertex="1" parent="1">
                    <mxGeometry x="2440" y="540" width="120" height="60" as="geometry"/>
                </mxCell>
                <mxCell id="43" value="NTIED variant" style="rounded=0;whiteSpace=wrap;html=1;" vertex="1" parent="1">
                    <mxGeometry x="2570" y="540" width="120" height="60" as="geometry"/>
                </mxCell>
                <mxCell id="44" value="NTL variant" style="rounded=0;whiteSpace=wrap;html=1;" vertex="1" parent="1">
                    <mxGeometry x="2690" y="540" width="120" height="60" as="geometry"/>
                </mxCell>
                <mxCell id="45" value="" style="endArrow=none;html=1;strokeColor=#433DFF;exitX=0.5;exitY=0;exitDx=0;exitDy=0;" edge="1" parent="1" source="44">
                    <mxGeometry width="50" height="50" relative="1" as="geometry">
                        <mxPoint x="2580" y="475" as="sourcePoint"/>
                        <mxPoint x="2580" y="255" as="targetPoint"/>
                    </mxGeometry>
                </mxCell>
                <mxCell id="46" value="" style="endArrow=none;dashed=1;html=1;dashPattern=1 3;strokeWidth=2;" edge="1" parent="1">
                    <mxGeometry width="50" height="50" relative="1" as="geometry">
                        <mxPoint x="2390" y="962" as="sourcePoint"/>
                        <mxPoint x="2520" y="600" as="targetPoint"/>
                    </mxGeometry>
                </mxCell>
                <mxCell id="47" value="" style="endArrow=none;dashed=1;html=1;dashPattern=1 3;strokeWidth=2;" edge="1" parent="1">
                    <mxGeometry width="50" height="50" relative="1" as="geometry">
                        <mxPoint x="2790" y="950" as="sourcePoint"/>
                        <mxPoint x="2670" y="600" as="targetPoint"/>
                    </mxGeometry>
                </mxCell>
                <mxCell id="48" value="NT" style="rounded=0;whiteSpace=wrap;html=1;" vertex="1" parent="1">
                    <mxGeometry x="2320" y="980" width="120" height="60" as="geometry"/>
                </mxCell>
                <mxCell id="49" value="IED" style="rounded=0;whiteSpace=wrap;html=1;" vertex="1" parent="1">
                    <mxGeometry x="2730" y="980" width="120" height="60" as="geometry"/>
                </mxCell>
                <mxCell id="50" value="IPANX&lt;div&gt;cycleAnchorDateOfInterestPayment&lt;/div&gt;&lt;div&gt;&lt;span style=&quot;color: rgb(63, 63, 63);&quot;&gt;[date]&lt;/span&gt;&lt;/div&gt;" style="ellipse;whiteSpace=wrap;html=1;aspect=fixed;" vertex="1" parent="1">
                    <mxGeometry x="3210" y="125" width="250" height="250" as="geometry"/>
                </mxCell>
                <mxCell id="51" value="IPCL&lt;div&gt;cycleOfInterestPayment&lt;/div&gt;&lt;div&gt;&lt;span style=&quot;color: rgb(63, 63, 63);&quot;&gt;[cycle]&lt;/span&gt;&lt;/div&gt;" style="ellipse;whiteSpace=wrap;html=1;aspect=fixed;" vertex="1" parent="1">
                    <mxGeometry x="3560" y="160" width="190" height="190" as="geometry"/>
                </mxCell>
                <mxCell id="52" value="" style="endArrow=none;html=1;strokeColor=#66CC00;exitX=0;exitY=0.5;exitDx=0;exitDy=0;entryX=1;entryY=0.5;entryDx=0;entryDy=0;" edge="1" parent="1" source="51" target="50">
                    <mxGeometry width="50" height="50" relative="1" as="geometry">
                        <mxPoint x="3250" y="400" as="sourcePoint"/>
                        <mxPoint x="3300" y="350" as="targetPoint"/>
                    </mxGeometry>
                </mxCell>
                <mxCell id="53" value="ARIPCLi&lt;div&gt;arrayCycleOfInterestPayment&lt;/div&gt;&lt;div&gt;&lt;span style=&quot;color: rgb(63, 63, 63);&quot;&gt;[arr cycle]&lt;/span&gt;&lt;/div&gt;" style="ellipse;whiteSpace=wrap;html=1;aspect=fixed;" vertex="1" parent="1">
                    <mxGeometry x="3570" y="-90" width="190" height="190" as="geometry"/>
                </mxCell>
                <mxCell id="54" value="" style="endArrow=none;html=1;strokeColor=#66CC00;exitX=0;exitY=0.632;exitDx=0;exitDy=0;exitPerimeter=0;" edge="1" parent="1" source="53">
                    <mxGeometry width="50" height="50" relative="1" as="geometry">
                        <mxPoint x="3500" y="145" as="sourcePoint"/>
                        <mxPoint x="3460" y="20" as="targetPoint"/>
                    </mxGeometry>
                </mxCell>
                <mxCell id="56" value="" style="rounded=0;whiteSpace=wrap;html=1;" vertex="1" parent="1">
                    <mxGeometry x="3120" y="490" width="650" height="420" as="geometry"/>
                </mxCell>
                <mxCell id="55" value="&lt;div&gt;&lt;font color=&quot;#000000&quot;&gt;IPAC&lt;/font&gt;&lt;/div&gt;&lt;div&gt;accruedInterest&lt;/div&gt;&lt;div&gt;[reel]&lt;/div&gt;" style="ellipse;whiteSpace=wrap;html=1;aspect=fixed;" vertex="1" parent="1">
                    <mxGeometry x="3160" y="540" width="170" height="170" as="geometry"/>
                </mxCell>
                <mxCell id="57" value="&lt;div&gt;&lt;font color=&quot;#000000&quot;&gt;IPNR&lt;/font&gt;&lt;/div&gt;&lt;div&gt;nominalInterestRate&lt;/div&gt;&lt;div&gt;[reel]&lt;/div&gt;" style="ellipse;whiteSpace=wrap;html=1;aspect=fixed;" vertex="1" parent="1">
                    <mxGeometry x="3380" y="550" width="170" height="170" as="geometry"/>
                </mxCell>
                <mxCell id="58" value="&lt;div&gt;&lt;font color=&quot;#000000&quot;&gt;IPNR2&lt;/font&gt;&lt;/div&gt;&lt;div&gt;nominalInterestRate2&lt;/div&gt;&lt;div&gt;[reel]&lt;/div&gt;" style="ellipse;whiteSpace=wrap;html=1;aspect=fixed;" vertex="1" parent="1">
                    <mxGeometry x="3380" y="732.5" width="170" height="170" as="geometry"/>
                </mxCell>
                <mxCell id="59" value="" style="endArrow=none;html=1;strokeColor=#433DFF;exitX=0.515;exitY=0.005;exitDx=0;exitDy=0;exitPerimeter=0;" edge="1" parent="1" source="56">
                    <mxGeometry width="50" height="50" relative="1" as="geometry">
                        <mxPoint x="3680" y="540" as="sourcePoint"/>
                        <mxPoint x="3510" y="255" as="targetPoint"/>
                    </mxGeometry>
                </mxCell>
                <mxCell id="60" value="MRANX&lt;div&gt;cycleAnchorDateOfMargining&lt;/div&gt;&lt;div&gt;&lt;span style=&quot;color: rgb(63, 63, 63);&quot;&gt;[date]&lt;/span&gt;&lt;/div&gt;" style="ellipse;whiteSpace=wrap;html=1;aspect=fixed;" vertex="1" parent="1">
                    <mxGeometry x="4110" y="120" width="250" height="250" as="geometry"/>
                </mxCell>
                <mxCell id="61" value="MRCL&lt;div&gt;cycleOfMargining&lt;/div&gt;&lt;div&gt;&lt;span style=&quot;color: rgb(63, 63, 63);&quot;&gt;[cycle]&lt;/span&gt;&lt;/div&gt;" style="ellipse;whiteSpace=wrap;html=1;aspect=fixed;" vertex="1" parent="1">
                    <mxGeometry x="4460" y="155" width="190" height="190" as="geometry"/>
                </mxCell>
                <mxCell id="62" value="" style="endArrow=none;html=1;strokeColor=#66CC00;exitX=0;exitY=0.5;exitDx=0;exitDy=0;entryX=1;entryY=0.5;entryDx=0;entryDy=0;" edge="1" parent="1" source="61" target="60">
                    <mxGeometry width="50" height="50" relative="1" as="geometry">
                        <mxPoint x="4150" y="395" as="sourcePoint"/>
                        <mxPoint x="4200" y="345" as="targetPoint"/>
                    </mxGeometry>
                </mxCell>
                <mxCell id="63" value="" style="rounded=0;whiteSpace=wrap;html=1;" vertex="1" parent="1">
                    <mxGeometry x="4100" y="490" width="650" height="420" as="geometry"/>
                </mxCell>
                <mxCell id="64" value="&lt;div&gt;&lt;font color=&quot;#000000&quot;&gt;MRIM&lt;/font&gt;&lt;/div&gt;&lt;div&gt;&lt;span style=&quot;background-color: transparent;&quot;&gt;initialMargin&lt;/span&gt;&lt;/div&gt;&lt;div&gt;&lt;span style=&quot;color: rgb(63, 63, 63); background-color: transparent;&quot;&gt;[reel]&lt;/span&gt;&lt;/div&gt;" style="ellipse;whiteSpace=wrap;html=1;aspect=fixed;" vertex="1" parent="1">
                    <mxGeometry x="4340" y="540" width="170" height="170" as="geometry"/>
                </mxCell>
                <mxCell id="65" value="&lt;div&gt;&lt;font color=&quot;#000000&quot;&gt;MRMML&lt;/font&gt;&lt;/div&gt;&lt;div&gt;&lt;span style=&quot;background-color: transparent;&quot;&gt;maintenanceMarginLowerBound&lt;/span&gt;&lt;/div&gt;&lt;div&gt;&lt;span style=&quot;color: rgb(63, 63, 63); background-color: transparent;&quot;&gt;[reel]&lt;/span&gt;&lt;/div&gt;" style="ellipse;whiteSpace=wrap;html=1;aspect=fixed;" vertex="1" parent="1">
                    <mxGeometry x="4550" y="530" width="170" height="170" as="geometry"/>
                </mxCell>
                <mxCell id="66" value="&lt;div&gt;&lt;font color=&quot;#000000&quot;&gt;MRMMU&lt;/font&gt;&lt;/div&gt;&lt;div&gt;maintenanceMarginUpperBound&lt;/div&gt;&lt;div&gt;[reel]&lt;/div&gt;" style="ellipse;whiteSpace=wrap;html=1;aspect=fixed;" vertex="1" parent="1">
                    <mxGeometry x="4350" y="732.5" width="170" height="170" as="geometry"/>
                </mxCell>
                <mxCell id="67" value="&lt;div&gt;&lt;font color=&quot;#000000&quot;&gt;MRVM&lt;/font&gt;&lt;/div&gt;&lt;div&gt;variationMargin&lt;/div&gt;&lt;div&gt;[reel]&lt;/div&gt;" style="ellipse;whiteSpace=wrap;html=1;aspect=fixed;" vertex="1" parent="1">
                    <mxGeometry x="4570" y="732.5" width="170" height="170" as="geometry"/>
                </mxCell>
                <mxCell id="68" value="&lt;div&gt;&lt;font color=&quot;#000000&quot;&gt;MRCLH&lt;/font&gt;&lt;/div&gt;&lt;div&gt;clearingHouse&lt;/div&gt;&lt;div&gt;[enum]&lt;/div&gt;" style="ellipse;whiteSpace=wrap;html=1;aspect=fixed;" vertex="1" parent="1">
                    <mxGeometry x="4120" y="600" width="170" height="170" as="geometry"/>
                </mxCell>
                <mxCell id="69" value="OPANX&lt;div&gt;cycleAnchorDateOfOptionality&lt;/div&gt;&lt;div&gt;&lt;span style=&quot;color: rgb(63, 63, 63);&quot;&gt;[date]&lt;/span&gt;&lt;/div&gt;" style="ellipse;whiteSpace=wrap;html=1;aspect=fixed;" vertex="1" parent="1">
                    <mxGeometry x="4880" width="250" height="250" as="geometry"/>
                </mxCell>
                <mxCell id="70" value="OPCL&lt;div&gt;cycleOfOptionality&lt;/div&gt;&lt;div&gt;&lt;span style=&quot;color: rgb(63, 63, 63);&quot;&gt;[cycle]&lt;/span&gt;&lt;/div&gt;" style="ellipse;whiteSpace=wrap;html=1;aspect=fixed;" vertex="1" parent="1">
                    <mxGeometry x="5270" y="65" width="190" height="190" as="geometry"/>
                </mxCell>
                <mxCell id="71" value="" style="endArrow=none;html=1;strokeColor=#66CC00;exitX=0;exitY=0.5;exitDx=0;exitDy=0;entryX=1;entryY=0.5;entryDx=0;entryDy=0;" edge="1" parent="1" source="70" target="69">
                    <mxGeometry width="50" height="50" relative="1" as="geometry">
                        <mxPoint x="4940" y="395" as="sourcePoint"/>
                        <mxPoint x="4990" y="345" as="targetPoint"/>
                    </mxGeometry>
                </mxCell>
                <mxCell id="72" value="" style="rounded=0;whiteSpace=wrap;html=1;" vertex="1" parent="1">
                    <mxGeometry x="4950" y="490" width="650" height="420" as="geometry"/>
                </mxCell>
                <mxCell id="73" value="&lt;div&gt;&lt;font color=&quot;#000000&quot;&gt;OPXT&lt;/font&gt;&lt;/div&gt;&lt;div&gt;optionExerciseType&lt;/div&gt;&lt;div&gt;&lt;span style=&quot;color: rgb(63, 63, 63); background-color: transparent;&quot;&gt;[enum]&lt;/span&gt;&lt;/div&gt;" style="ellipse;whiteSpace=wrap;html=1;aspect=fixed;" vertex="1" parent="1">
                    <mxGeometry x="5050" y="510" width="170" height="170" as="geometry"/>
                </mxCell>
                <mxCell id="74" value="&lt;div&gt;&lt;font color=&quot;#000000&quot;&gt;OPS1&lt;/font&gt;&lt;/div&gt;&lt;div&gt;optionStrike1&lt;/div&gt;&lt;div&gt;&lt;span style=&quot;color: rgb(63, 63, 63); background-color: transparent;&quot;&gt;[reel]&lt;/span&gt;&lt;/div&gt;" style="ellipse;whiteSpace=wrap;html=1;aspect=fixed;" vertex="1" parent="1">
                    <mxGeometry x="5370" y="530" width="170" height="170" as="geometry"/>
                </mxCell>
                <mxCell id="75" value="&lt;div&gt;&lt;font color=&quot;#000000&quot;&gt;OPTP&lt;/font&gt;&lt;/div&gt;&lt;div&gt;optionType&lt;/div&gt;&lt;div&gt;[enum]&lt;/div&gt;" style="ellipse;whiteSpace=wrap;html=1;aspect=fixed;" vertex="1" parent="1">
                    <mxGeometry x="5050" y="710" width="170" height="170" as="geometry"/>
                </mxCell>
                <mxCell id="76" value="&lt;div&gt;&lt;span style=&quot;background-color: transparent;&quot;&gt;&lt;font color=&quot;#000000&quot;&gt;OPS2&lt;/font&gt;&lt;/span&gt;&lt;/div&gt;&lt;div&gt;&lt;span style=&quot;background-color: transparent;&quot;&gt;optionStrike2&lt;/span&gt;&lt;/div&gt;&lt;div&gt;&lt;span style=&quot;color: rgb(63, 63, 63); background-color: transparent;&quot;&gt;[reel]&lt;/span&gt;&lt;/div&gt;" style="ellipse;whiteSpace=wrap;html=1;aspect=fixed;" vertex="1" parent="1">
                    <mxGeometry x="5370" y="732.5" width="170" height="170" as="geometry"/>
                </mxCell>
                <mxCell id="78" value="OPXED&lt;div&gt;optionExerciseEndDate&lt;/div&gt;&lt;div&gt;&lt;span style=&quot;color: rgb(63, 63, 63);&quot;&gt;[date]&lt;/span&gt;&lt;/div&gt;" style="ellipse;whiteSpace=wrap;html=1;aspect=fixed;" vertex="1" parent="1">
                    <mxGeometry x="5070" y="230" width="210" height="210" as="geometry"/>
                </mxCell>
                <mxCell id="79" value="" style="rounded=0;whiteSpace=wrap;html=1;" vertex="1" parent="1">
                    <mxGeometry x="820" y="-580" width="1710" height="450" as="geometry"/>
                </mxCell>
                <mxCell id="81" value="CID&lt;div&gt;contractID&lt;/div&gt;&lt;div&gt;[string]&lt;/div&gt;" style="ellipse;whiteSpace=wrap;html=1;aspect=fixed;" vertex="1" parent="1">
                    <mxGeometry x="900" y="-560" width="130" height="130" as="geometry"/>
                </mxCell>
                <mxCell id="83" value="CPID&lt;div&gt;counterpartyID&lt;/div&gt;&lt;div&gt;[string]&lt;/div&gt;" style="ellipse;whiteSpace=wrap;html=1;aspect=fixed;" vertex="1" parent="1">
                    <mxGeometry x="895" y="-420" width="130" height="130" as="geometry"/>
                </mxCell>
                <mxCell id="85" value="CRID&lt;div&gt;creatorID&lt;/div&gt;&lt;div&gt;[string]&lt;/div&gt;" style="ellipse;whiteSpace=wrap;html=1;aspect=fixed;" vertex="1" parent="1">
                    <mxGeometry x="1030" y="-490" width="130" height="130" as="geometry"/>
                </mxCell>
                <mxCell id="86" value="CUR&lt;div&gt;currency&lt;/div&gt;&lt;div&gt;[string]&lt;/div&gt;" style="ellipse;whiteSpace=wrap;html=1;aspect=fixed;" vertex="1" parent="1">
                    <mxGeometry x="1330" y="-530" width="130" height="130" as="geometry"/>
                </mxCell>
                <mxCell id="87" value="CURS&lt;div&gt;settlementCurrency&lt;/div&gt;&lt;div&gt;[string]&lt;/div&gt;" style="ellipse;whiteSpace=wrap;html=1;aspect=fixed;" vertex="1" parent="1">
                    <mxGeometry x="1490" y="-470" width="130" height="130" as="geometry"/>
                </mxCell>
                <mxCell id="88" value="CUR2&lt;div&gt;currency2&lt;/div&gt;&lt;div&gt;[string]&lt;/div&gt;" style="ellipse;whiteSpace=wrap;html=1;aspect=fixed;" vertex="1" parent="1">
                    <mxGeometry x="1330" y="-360" width="130" height="130" as="geometry"/>
                </mxCell>
                <mxCell id="93" value="MOC&lt;br&gt;&lt;div&gt;&lt;span style=&quot;background-color: transparent;&quot;&gt;marketObjectCode&lt;/span&gt;&lt;/div&gt;&lt;div&gt;&lt;span style=&quot;color: rgb(63, 63, 63); background-color: transparent;&quot;&gt;[string]&lt;/span&gt;&lt;/div&gt;" style="ellipse;whiteSpace=wrap;html=1;aspect=fixed;" vertex="1" parent="1">
                    <mxGeometry x="1750" y="-540" width="130" height="130" as="geometry"/>
                </mxCell>
                <mxCell id="94" value="SCMO&lt;br&gt;&lt;div&gt;&lt;span style=&quot;background-color: transparent;&quot;&gt;marketObjectCodeOfScalingIndex&lt;/span&gt;&lt;/div&gt;&lt;div&gt;&lt;span style=&quot;color: rgb(63, 63, 63); background-color: transparent;&quot;&gt;[string]&lt;/span&gt;&lt;/div&gt;" style="ellipse;whiteSpace=wrap;html=1;aspect=fixed;" vertex="1" parent="1">
                    <mxGeometry x="1910" y="-480" width="200" height="200" as="geometry"/>
                </mxCell>
                <mxCell id="95" value="RRMO&lt;div&gt;marketObjectCodeOfRateReset&lt;/div&gt;&lt;div&gt;[string]&lt;/div&gt;" style="ellipse;whiteSpace=wrap;html=1;aspect=fixed;" vertex="1" parent="1">
                    <mxGeometry x="1700" y="-360" width="200" height="200" as="geometry"/>
                </mxCell>
                <mxCell id="96" value="PRANX&lt;div&gt;cycleAnchorDateOfPrincipalRedemption&lt;/div&gt;&lt;div&gt;&lt;span style=&quot;color: rgb(63, 63, 63);&quot;&gt;[date]&lt;/span&gt;&lt;/div&gt;" style="ellipse;whiteSpace=wrap;html=1;aspect=fixed;" vertex="1" parent="1">
                    <mxGeometry x="5840" y="180" width="250" height="250" as="geometry"/>
                </mxCell>
                <mxCell id="97" value="PRCL&lt;div&gt;cycleOfPrincipalRedemption&lt;/div&gt;&lt;div&gt;&lt;span style=&quot;color: rgb(63, 63, 63);&quot;&gt;[cycle]&lt;/span&gt;&lt;/div&gt;" style="ellipse;whiteSpace=wrap;html=1;aspect=fixed;" vertex="1" parent="1">
                    <mxGeometry x="6230" y="245" width="190" height="190" as="geometry"/>
                </mxCell>
                <mxCell id="98" value="" style="endArrow=none;html=1;strokeColor=#66CC00;exitX=0;exitY=0.5;exitDx=0;exitDy=0;entryX=1;entryY=0.5;entryDx=0;entryDy=0;" edge="1" parent="1" source="97" target="96">
                    <mxGeometry width="50" height="50" relative="1" as="geometry">
                        <mxPoint x="5900" y="575" as="sourcePoint"/>
                        <mxPoint x="5950" y="525" as="targetPoint"/>
                    </mxGeometry>
                </mxCell>
                <mxCell id="100" value="ARIPANXi&lt;br&gt;&lt;div&gt;&lt;span style=&quot;background-color: transparent;&quot;&gt;arrayCycleAnchorDateOfInterestPayment\&lt;/span&gt;&lt;span style=&quot;background-color: transparent;&quot;&gt;[date]&lt;/span&gt;&lt;/div&gt;" style="ellipse;whiteSpace=wrap;html=1;aspect=fixed;" vertex="1" parent="1">
                    <mxGeometry x="3190" y="-130" width="250" height="250" as="geometry"/>
                </mxCell>
                <mxCell id="101" value="ARPRANXj&lt;div&gt;arrayCycleAnchorDateOfPrincipalRedemption&lt;/div&gt;&lt;div&gt;&lt;span style=&quot;color: rgb(63, 63, 63);&quot;&gt;[date]&lt;/span&gt;&lt;/div&gt;" style="ellipse;whiteSpace=wrap;html=1;aspect=fixed;" vertex="1" parent="1">
                    <mxGeometry x="5830" y="-115" width="250" height="250" as="geometry"/>
                </mxCell>
                <mxCell id="102" value="ARPRCLj&lt;div&gt;arrayCycleOfPrincipalRedemption&lt;/div&gt;&lt;div&gt;&lt;span style=&quot;color: rgb(63, 63, 63);&quot;&gt;[cycle]&lt;/span&gt;&lt;/div&gt;" style="ellipse;whiteSpace=wrap;html=1;aspect=fixed;" vertex="1" parent="1">
                    <mxGeometry x="6220" y="-50" width="190" height="190" as="geometry"/>
                </mxCell>
                <mxCell id="103" value="" style="endArrow=none;html=1;strokeColor=#66CC00;exitX=0;exitY=0.5;exitDx=0;exitDy=0;entryX=1;entryY=0.5;entryDx=0;entryDy=0;" edge="1" parent="1" source="102" target="101">
                    <mxGeometry width="50" height="50" relative="1" as="geometry">
                        <mxPoint x="5890" y="280" as="sourcePoint"/>
                        <mxPoint x="5940" y="230" as="targetPoint"/>
                    </mxGeometry>
                </mxCell>
                <mxCell id="104" value="&lt;div&gt;&lt;font color=&quot;#000000&quot;&gt;RRANX&lt;/font&gt;&lt;/div&gt;&lt;div&gt;cycleAnchorDateOfRateReset&lt;/div&gt;&lt;div&gt;&lt;span style=&quot;color: rgb(63, 63, 63);&quot;&gt;[date]&lt;/span&gt;&lt;/div&gt;" style="ellipse;whiteSpace=wrap;html=1;aspect=fixed;" vertex="1" parent="1">
                    <mxGeometry x="6630" y="180" width="250" height="250" as="geometry"/>
                </mxCell>
                <mxCell id="105" value="RRCL&lt;br&gt;&lt;div&gt;&lt;span style=&quot;background-color: transparent;&quot;&gt;cycleOfRateReset&lt;/span&gt;&lt;/div&gt;&lt;div&gt;&lt;span style=&quot;background-color: transparent;&quot;&gt;[cycle]&lt;/span&gt;&lt;/div&gt;" style="ellipse;whiteSpace=wrap;html=1;aspect=fixed;" vertex="1" parent="1">
                    <mxGeometry x="7020" y="245" width="190" height="190" as="geometry"/>
                </mxCell>
                <mxCell id="106" value="" style="endArrow=none;html=1;strokeColor=#66CC00;exitX=0;exitY=0.5;exitDx=0;exitDy=0;entryX=1;entryY=0.5;entryDx=0;entryDy=0;" edge="1" parent="1" source="105" target="104">
                    <mxGeometry width="50" height="50" relative="1" as="geometry">
                        <mxPoint x="6690" y="575" as="sourcePoint"/>
                        <mxPoint x="6740" y="525" as="targetPoint"/>
                    </mxGeometry>
                </mxCell>
                <mxCell id="107" value="ARRRANX&lt;div&gt;arrayCycleAnchorDateOfRateReset&lt;/div&gt;&lt;div&gt;&lt;span style=&quot;color: rgb(63, 63, 63);&quot;&gt;[date]&lt;/span&gt;&lt;/div&gt;" style="ellipse;whiteSpace=wrap;html=1;aspect=fixed;" vertex="1" parent="1">
                    <mxGeometry x="6620" y="-115" width="250" height="250" as="geometry"/>
                </mxCell>
                <mxCell id="108" value="ARRRCL&lt;div&gt;arrayCycleOfRateReset&lt;/div&gt;&lt;div&gt;&lt;span style=&quot;color: rgb(63, 63, 63);&quot;&gt;[cycle]&lt;/span&gt;&lt;/div&gt;" style="ellipse;whiteSpace=wrap;html=1;aspect=fixed;" vertex="1" parent="1">
                    <mxGeometry x="7010" y="-50" width="190" height="190" as="geometry"/>
                </mxCell>
                <mxCell id="109" value="" style="endArrow=none;html=1;strokeColor=#66CC00;exitX=0;exitY=0.5;exitDx=0;exitDy=0;entryX=1;entryY=0.5;entryDx=0;entryDy=0;" edge="1" parent="1" source="108" target="107">
                    <mxGeometry width="50" height="50" relative="1" as="geometry">
                        <mxPoint x="6680" y="280" as="sourcePoint"/>
                        <mxPoint x="6730" y="230" as="targetPoint"/>
                    </mxGeometry>
                </mxCell>
                <mxCell id="110" value="&lt;div&gt;&lt;font color=&quot;#000000&quot;&gt;SCANX&lt;/font&gt;&lt;/div&gt;&lt;div&gt;cycleAnchorDateOfScalingIndex&lt;/div&gt;&lt;div&gt;&lt;span style=&quot;color: rgb(63, 63, 63);&quot;&gt;[date]&lt;/span&gt;&lt;/div&gt;" style="ellipse;whiteSpace=wrap;html=1;aspect=fixed;" vertex="1" parent="1">
                    <mxGeometry x="7400" y="185" width="250" height="250" as="geometry"/>
                </mxCell>
                <mxCell id="111" value="&lt;div&gt;&lt;span style=&quot;background-color: transparent;&quot;&gt;&lt;font color=&quot;#000000&quot;&gt;SCCL&lt;/font&gt;&lt;/span&gt;&lt;/div&gt;&lt;div&gt;cycleOfScalingIndex&lt;/div&gt;&lt;div&gt;&lt;span style=&quot;background-color: transparent;&quot;&gt;[cycle]&lt;/span&gt;&lt;/div&gt;" style="ellipse;whiteSpace=wrap;html=1;aspect=fixed;" vertex="1" parent="1">
                    <mxGeometry x="7790" y="250" width="190" height="190" as="geometry"/>
                </mxCell>
                <mxCell id="112" value="" style="endArrow=none;html=1;strokeColor=#66CC00;exitX=0;exitY=0.5;exitDx=0;exitDy=0;entryX=1;entryY=0.5;entryDx=0;entryDy=0;" edge="1" parent="1" source="111" target="110">
                    <mxGeometry width="50" height="50" relative="1" as="geometry">
                        <mxPoint x="7460" y="580" as="sourcePoint"/>
                        <mxPoint x="7510" y="530" as="targetPoint"/>
                    </mxGeometry>
                </mxCell>
                <mxCell id="113" value="&lt;div&gt;&lt;span style=&quot;background-color: transparent;&quot;&gt;&lt;font color=&quot;#000000&quot;&gt;BMANX&lt;/font&gt;&lt;/span&gt;&lt;/div&gt;&lt;div&gt;boundaryMonitoringAnchorDate&lt;/div&gt;&lt;div&gt;&lt;span style=&quot;color: rgb(63, 63, 63);&quot;&gt;[date]&lt;/span&gt;&lt;/div&gt;" style="ellipse;whiteSpace=wrap;html=1;aspect=fixed;" vertex="1" parent="1">
                    <mxGeometry x="8150" y="170" width="250" height="250" as="geometry"/>
                </mxCell>
                <mxCell id="114" value="&lt;div&gt;&lt;font color=&quot;#000000&quot;&gt;BMCL&lt;/font&gt;&lt;/div&gt;&lt;div&gt;boundaryMonitoringCycle&lt;/div&gt;&lt;div&gt;&lt;span style=&quot;background-color: transparent;&quot;&gt;[cycle]&lt;/span&gt;&lt;/div&gt;" style="ellipse;whiteSpace=wrap;html=1;aspect=fixed;" vertex="1" parent="1">
                    <mxGeometry x="8530" y="220" width="190" height="190" as="geometry"/>
                </mxCell>
                <mxCell id="115" value="" style="endArrow=none;html=1;strokeColor=#66CC00;exitX=0;exitY=0.5;exitDx=0;exitDy=0;entryX=1;entryY=0.5;entryDx=0;entryDy=0;" edge="1" parent="1" source="114" target="113">
                    <mxGeometry width="50" height="50" relative="1" as="geometry">
                        <mxPoint x="8210" y="577.5" as="sourcePoint"/>
                        <mxPoint x="8260" y="527.5" as="targetPoint"/>
                    </mxGeometry>
                </mxCell>
                <mxCell id="116" value="&lt;div&gt;&lt;font color=&quot;#000000&quot;&gt;BMED&lt;/font&gt;&lt;/div&gt;&lt;div&gt;boundaryMonitoringEndDate&lt;/div&gt;&lt;div&gt;&lt;span style=&quot;color: rgb(63, 63, 63);&quot;&gt;[date]&lt;/span&gt;&lt;/div&gt;" style="ellipse;whiteSpace=wrap;html=1;aspect=fixed;" vertex="1" parent="1">
                    <mxGeometry x="8140" y="-140" width="250" height="250" as="geometry"/>
                </mxCell>
                <mxCell id="118" value="&lt;div&gt;&lt;span style=&quot;background-color: transparent;&quot;&gt;&lt;font color=&quot;#000000&quot;&gt;IPPNT&lt;/font&gt;&lt;/span&gt;&lt;/div&gt;&lt;div&gt;cyclePointOfInterestPayment&lt;/div&gt;&lt;div&gt;[enum]&lt;/div&gt;" style="ellipse;whiteSpace=wrap;html=1;aspect=fixed;" vertex="1" parent="1">
                    <mxGeometry x="3140" y="732.5" width="170" height="170" as="geometry"/>
                </mxCell>
                <mxCell id="119" value="&lt;div&gt;&lt;font color=&quot;#000000&quot;&gt;RRPNT&lt;/font&gt;&lt;/div&gt;&lt;div&gt;cyclePointOfRateReset&lt;/div&gt;&lt;div&gt;&lt;span style=&quot;color: rgb(63, 63, 63);&quot;&gt;[enum]&lt;/span&gt;&lt;/div&gt;" style="ellipse;whiteSpace=wrap;html=1;aspect=fixed;" vertex="1" parent="1">
                    <mxGeometry x="6650" y="610" width="250" height="250" as="geometry"/>
                </mxCell>
                <mxCell id="121" value="" style="endArrow=none;html=1;strokeColor=#433DFF;exitX=0.5;exitY=0;exitDx=0;exitDy=0;" edge="1" parent="1">
                    <mxGeometry width="50" height="50" relative="1" as="geometry">
                        <mxPoint x="1814.41" y="-550" as="sourcePoint"/>
                        <mxPoint x="1814.41" y="-770" as="targetPoint"/>
                    </mxGeometry>
                </mxCell>
                <mxCell id="122" value="MVO&lt;br&gt;&lt;div&gt;&lt;span style=&quot;background-color: transparent;&quot;&gt;marketValueObserved&lt;/span&gt;&lt;/div&gt;&lt;div&gt;&lt;span style=&quot;background-color: transparent;&quot;&gt;[reel]&lt;/span&gt;&lt;/div&gt;" style="ellipse;whiteSpace=wrap;html=1;aspect=fixed;" vertex="1" parent="1">
                    <mxGeometry x="1810" y="-920" width="130" height="130" as="geometry"/>
                </mxCell>
                <mxCell id="123" value="UT&lt;br&gt;&lt;div&gt;&lt;span style=&quot;background-color: transparent;&quot;&gt;unit&lt;/span&gt;&lt;/div&gt;&lt;div&gt;&lt;span style=&quot;color: rgb(63, 63, 63); background-color: transparent;&quot;&gt;[enum]&lt;/span&gt;&lt;/div&gt;" style="ellipse;whiteSpace=wrap;html=1;aspect=fixed;" vertex="1" parent="1">
                    <mxGeometry x="2350" y="-445" width="130" height="130" as="geometry"/>
                </mxCell>
                <mxCell id="127" value="" style="swimlane;startSize=0;" vertex="1" parent="1">
                    <mxGeometry x="8290" y="490" width="880" height="830" as="geometry"/>
                </mxCell>
                <mxCell id="117" value="&lt;div&gt;&lt;font color=&quot;#000000&quot;&gt;BV&lt;/font&gt;&lt;/div&gt;&lt;div&gt;boundaryValue&lt;/div&gt;&lt;div&gt;&lt;span style=&quot;color: rgb(63, 63, 63);&quot;&gt;[reel]&lt;/span&gt;&lt;/div&gt;" style="ellipse;whiteSpace=wrap;html=1;aspect=fixed;" vertex="1" parent="127">
                    <mxGeometry x="20" y="20" width="250" height="250" as="geometry"/>
                </mxCell>
                <mxCell id="130" value="&lt;div&gt;&lt;span style=&quot;background-color: transparent;&quot;&gt;&lt;font color=&quot;#000000&quot;&gt;BCF&lt;/font&gt;&lt;/span&gt;&lt;/div&gt;&lt;div&gt;boundaryCrossedFlag&lt;/div&gt;&lt;div&gt;&lt;span style=&quot;color: rgb(63, 63, 63);&quot;&gt;[bool]&lt;/span&gt;&lt;/div&gt;" style="ellipse;whiteSpace=wrap;html=1;aspect=fixed;" vertex="1" parent="127">
                    <mxGeometry x="620" y="230" width="250" height="250" as="geometry"/>
                </mxCell>
                <mxCell id="129" value="&lt;div&gt;&lt;span style=&quot;background-color: transparent;&quot;&gt;&lt;font color=&quot;#000000&quot;&gt;BDR&lt;/font&gt;&lt;/span&gt;&lt;/div&gt;&lt;div&gt;&lt;span style=&quot;color: rgb(63, 63, 63); background-color: transparent;&quot;&gt;boundaryDirection&lt;/span&gt;&lt;/div&gt;&lt;div&gt;&lt;span style=&quot;color: rgb(63, 63, 63);&quot;&gt;[enum]&lt;/span&gt;&lt;/div&gt;" style="ellipse;whiteSpace=wrap;html=1;aspect=fixed;" vertex="1" parent="127">
                    <mxGeometry x="300" y="290" width="250" height="250" as="geometry"/>
                </mxCell>
                <mxCell id="131" value="&lt;div&gt;&lt;font color=&quot;#000000&quot;&gt;BEF&lt;/font&gt;&lt;/div&gt;&lt;div&gt;boundaryEffect&lt;/div&gt;&lt;div&gt;&lt;span style=&quot;color: rgb(63, 63, 63);&quot;&gt;[enum]&lt;/span&gt;&lt;/div&gt;" style="ellipse;whiteSpace=wrap;html=1;aspect=fixed;" vertex="1" parent="127">
                    <mxGeometry x="330" y="10" width="250" height="250" as="geometry"/>
                </mxCell>
                <mxCell id="128" value="&lt;div&gt;&lt;font color=&quot;#000000&quot;&gt;BLIA&lt;/font&gt;&lt;/div&gt;&lt;div&gt;boundaryLegInitiallyActive&lt;/div&gt;&lt;div&gt;&lt;span style=&quot;color: rgb(63, 63, 63);&quot;&gt;[enum]&lt;/span&gt;&lt;/div&gt;" style="ellipse;whiteSpace=wrap;html=1;aspect=fixed;" vertex="1" parent="127">
                    <mxGeometry x="315" y="560" width="250" height="250" as="geometry"/>
                </mxCell>
                <mxCell id="132" value="&lt;div&gt;&lt;font color=&quot;#000000&quot;&gt;DQP&lt;/font&gt;&lt;/div&gt;&lt;div&gt;delinquencyPeriod&lt;/div&gt;&lt;div&gt;&lt;span style=&quot;color: rgb(63, 63, 63);&quot;&gt;[period]&lt;/span&gt;&lt;/div&gt;" style="ellipse;whiteSpace=wrap;html=1;aspect=fixed;" vertex="1" parent="1">
                    <mxGeometry x="9560" y="190" width="250" height="250" as="geometry"/>
                </mxCell>
                <mxCell id="133" value="&lt;div&gt;&lt;font color=&quot;#000000&quot;&gt;DQR&lt;/font&gt;&lt;/div&gt;&lt;div&gt;delinquencyRate&lt;/div&gt;&lt;div&gt;&lt;span style=&quot;background-color: transparent;&quot;&gt;[reel]&lt;/span&gt;&lt;/div&gt;" style="ellipse;whiteSpace=wrap;html=1;aspect=fixed;" vertex="1" parent="1">
                    <mxGeometry x="9700" y="800" width="190" height="190" as="geometry"/>
                </mxCell>
                <mxCell id="134" value="" style="endArrow=none;html=1;strokeColor=#449BFF;exitX=0;exitY=0.5;exitDx=0;exitDy=0;entryX=1;entryY=0.5;entryDx=0;entryDy=0;" edge="1" parent="1" source="133" target="132">
                    <mxGeometry width="50" height="50" relative="1" as="geometry">
                        <mxPoint x="9620" y="597.5" as="sourcePoint"/>
                        <mxPoint x="9670" y="547.5" as="targetPoint"/>
                    </mxGeometry>
                </mxCell>
                <mxCell id="135" value="&lt;div&gt;&lt;span style=&quot;background-color: transparent;&quot;&gt;&lt;font color=&quot;#000000&quot;&gt;XD&lt;/font&gt;&lt;/span&gt;&lt;/div&gt;&lt;div&gt;&lt;span style=&quot;background-color: transparent;&quot;&gt;exerciseDate&lt;/span&gt;&lt;/div&gt;&lt;div&gt;&lt;span style=&quot;color: rgb(63, 63, 63);&quot;&gt;[date]&lt;/span&gt;&lt;/div&gt;" style="ellipse;whiteSpace=wrap;html=1;aspect=fixed;" vertex="1" parent="1">
                    <mxGeometry x="10320" y="195" width="250" height="250" as="geometry"/>
                </mxCell>
                <mxCell id="136" value="&lt;div&gt;&lt;font color=&quot;#000000&quot;&gt;XA&lt;/font&gt;&lt;/div&gt;&lt;div&gt;exerciseAmount&lt;/div&gt;&lt;div&gt;&lt;span style=&quot;background-color: transparent;&quot;&gt;[reel]&lt;/span&gt;&lt;/div&gt;" style="ellipse;whiteSpace=wrap;html=1;aspect=fixed;" vertex="1" parent="1">
                    <mxGeometry x="10460" y="805" width="190" height="190" as="geometry"/>
                </mxCell>
                <mxCell id="137" value="" style="endArrow=none;html=1;strokeColor=#449BFF;exitX=0;exitY=0.5;exitDx=0;exitDy=0;entryX=1;entryY=0.5;entryDx=0;entryDy=0;" edge="1" parent="1" source="136" target="135">
                    <mxGeometry width="50" height="50" relative="1" as="geometry">
                        <mxPoint x="10380" y="602.5" as="sourcePoint"/>
                        <mxPoint x="10430" y="552.5" as="targetPoint"/>
                    </mxGeometry>
                </mxCell>
                <mxCell id="138" value="&lt;div&gt;&lt;span style=&quot;background-color: transparent;&quot;&gt;&lt;font color=&quot;#000000&quot;&gt;NPD&lt;/font&gt;&lt;/span&gt;&lt;/div&gt;&lt;div&gt;&lt;span style=&quot;color: rgb(63, 63, 63); background-color: transparent;&quot;&gt;nonPerformingDate&lt;/span&gt;&lt;/div&gt;&lt;div&gt;&lt;span style=&quot;color: rgb(63, 63, 63); background-color: transparent;&quot;&gt;[&lt;/span&gt;&lt;span style=&quot;background-color: transparent; color: rgb(63, 63, 63);&quot;&gt;date]&lt;/span&gt;&lt;/div&gt;" style="ellipse;whiteSpace=wrap;html=1;aspect=fixed;" vertex="1" parent="1">
                    <mxGeometry x="10930" y="190" width="250" height="250" as="geometry"/>
                </mxCell>
                <mxCell id="139" value="&lt;div&gt;&lt;font color=&quot;#000000&quot;&gt;PRF&lt;/font&gt;&lt;/div&gt;&lt;div&gt;&lt;span style=&quot;background-color: transparent;&quot;&gt;contractPerformance&lt;/span&gt;&lt;/div&gt;&lt;div&gt;&lt;span style=&quot;background-color: transparent; color: rgb(63, 63, 63);&quot;&gt;[reel]&lt;/span&gt;&lt;/div&gt;" style="ellipse;whiteSpace=wrap;html=1;aspect=fixed;" vertex="1" parent="1">
                    <mxGeometry x="11070" y="800" width="190" height="190" as="geometry"/>
                </mxCell>
                <mxCell id="140" value="" style="endArrow=none;html=1;strokeColor=#449BFF;exitX=0;exitY=0.5;exitDx=0;exitDy=0;entryX=1;entryY=0.5;entryDx=0;entryDy=0;" edge="1" parent="1" source="139" target="138">
                    <mxGeometry width="50" height="50" relative="1" as="geometry">
                        <mxPoint x="10990" y="597.5" as="sourcePoint"/>
                        <mxPoint x="11040" y="547.5" as="targetPoint"/>
                    </mxGeometry>
                </mxCell>
            </root>
        </mxGraphModel>
    </diagram>
    <diagram id="I9RuVmWkNFhncNJB3hMD" name="PAM">
        <mxGraphModel dx="669" dy="397" grid="1" gridSize="10" guides="1" tooltips="1" connect="1" arrows="1" fold="1" page="1" pageScale="1" pageWidth="850" pageHeight="1100" math="0" shadow="0">
            <root>
                <mxCell id="0"/>
                <mxCell id="1" parent="0"/>
            </root>
        </mxGraphModel>
    </diagram>
</mxfile>